<?xml version="1.0" standalone="no"?>
<!DOCTYPE svg PUBLIC "-//W3C//DTD SVG 20010904//EN"
 "http://www.w3.org/TR/2001/REC-SVG-20010904/DTD/svg10.dtd">
<svg version="1.0" xmlns="http://www.w3.org/2000/svg"
 width="730.000000pt" height="999.000000pt" viewBox="0 0 730.000000 999.000000"
 preserveAspectRatio="xMidYMid meet">

<g transform="translate(0.000000,999.000000) scale(0.100000,-0.100000)"
fill="#000000" stroke="none">
<path d="M1856 9300 c-1011 -379 -1841 -691 -1844 -694 -5 -6 564 -7467 573
-7512 4 -18 214 -96 1488 -552 815 -293 1488 -532 1495 -532 14 0 2993 978
3001 985 7 8 735 7604 729 7611 -12 11 -3571 1384 -3587 1383 -9 0 -843 -311
-1855 -689z m3582 -171 c1445 -568 1662 -656 1662 -674 0 -28 -679 -7233 -685
-7272 l-6 -31 -1411 -471 c-776 -259 -1418 -471 -1427 -471 -18 0 -2798 1014
-2808 1024 -7 6 -557 7236 -551 7241 2 1 791 302 1753 668 1647 626 1752 664
1780 653 17 -7 778 -307 1693 -667z"/>
<path d="M2080 8854 c-883 -345 -1606 -628 -1608 -629 -4 -3 499 -6828 504
-6834 1 -1 586 -221 1298 -487 l1295 -484 1303 446 c717 245 1306 449 1310
452 5 6 639 6846 638 6892 0 12 -435 191 -1547 640 -852 343 -1557 625 -1568
627 -11 1 -742 -279 -1625 -623z m1467 -7 c23 -111 38 -205 35 -209 -4 -4 -18
-9 -32 -13 -23 -6 -33 4 -108 106 -45 62 -82 110 -82 107 0 -3 11 -61 25 -129
14 -67 22 -126 18 -130 -5 -4 -17 -10 -29 -13 -20 -6 -23 3 -58 181 -21 104
-40 198 -42 209 -4 17 1 24 25 32 l31 11 86 -117 c57 -77 84 -107 80 -89 -16
67 -46 220 -46 233 0 14 40 36 50 27 3 -2 24 -95 47 -206z m497 200 c18 -13
16 -22 -37 -181 l-56 -166 37 -16 c20 -9 54 -22 75 -31 20 -8 37 -16 37 -18 0
-13 -24 -65 -30 -65 -21 0 -200 84 -200 93 0 29 134 397 144 397 7 0 20 -6 30
-13z m-820 -119 c3 -17 3 -35 -1 -39 -5 -3 -39 -17 -77 -29 l-68 -22 5 -40 c3
-22 8 -42 11 -45 2 -3 34 5 70 18 36 13 67 21 70 18 3 -3 9 -19 12 -36 6 -31
6 -31 -66 -54 l-72 -23 7 -46 c4 -25 10 -49 15 -54 5 -5 41 3 83 17 81 27 87
25 87 -28 0 -21 -12 -27 -107 -59 -59 -20 -108 -34 -110 -32 -6 6 -84 408 -80
412 7 7 190 73 203 74 6 0 14 -14 18 -32z m1061 20 c14 -6 25 -16 25 -21 0 -6
-20 -72 -45 -148 -50 -152 -53 -174 -28 -201 19 -21 66 -24 81 -5 6 7 32 75
58 152 26 77 50 144 54 148 8 9 60 -12 60 -24 0 -18 -100 -292 -117 -321 -11
-19 -34 -38 -55 -46 -32 -13 -40 -12 -82 6 -52 24 -86 70 -86 120 0 27 98 352
107 352 1 0 14 -5 28 -12z m-1321 -94 c16 -41 7 -61 -34 -73 -22 -6 -40 -14
-40 -16 0 -3 16 -79 35 -171 19 -91 35 -167 35 -169 0 -2 -14 -8 -30 -14 -37
-12 -31 -29 -71 176 l-32 161 -40 -14 c-22 -8 -42 -12 -45 -10 -2 3 -5 19 -5
36 -2 32 -1 32 103 70 123 46 116 44 124 24z m1636 -44 c46 -24 46 -19 24
-171 -8 -61 -14 -115 -12 -120 2 -5 32 43 68 106 36 63 68 115 72 115 8 0 88
-31 88 -34 0 -2 -128 -386 -135 -403 -5 -16 -55 4 -55 22 0 6 20 70 44 143 25
73 43 132 41 132 -2 0 -36 -58 -75 -129 l-72 -129 -29 10 c-16 5 -29 16 -29
23 0 8 9 76 20 151 11 75 19 138 17 140 -2 2 -20 -49 -41 -114 -58 -176 -51
-164 -81 -150 -14 6 -25 16 -25 22 0 16 131 406 136 406 3 0 23 -9 44 -20z
m-1865 -245 c53 -98 92 -182 88 -186 -4 -4 -20 -10 -34 -14 -22 -6 -28 -2 -44
34 -10 23 -20 41 -23 41 -3 0 -29 -8 -59 -17 -49 -15 -53 -19 -53 -47 0 -51
-11 -77 -38 -87 -14 -5 -27 -7 -29 -5 -5 5 14 342 23 413 4 34 10 43 32 51 15
5 30 7 34 3 4 -4 51 -87 103 -186z m-280 91 c29 -29 49 -98 41 -144 -8 -52
-33 -83 -87 -105 -54 -23 -54 -23 -35 -115 l14 -63 -25 -10 c-13 -5 -28 -9
-31 -9 -4 0 -25 89 -46 198 -22 108 -41 202 -43 208 -5 13 125 62 165 63 13 1
34 -10 47 -23z m2578 -24 c17 -4 18 -13 13 -81 -3 -42 -9 -147 -12 -233 -4
-87 -8 -158 -11 -158 -2 0 -18 7 -34 16 -29 14 -30 18 -28 67 l3 51 -49 22
c-64 29 -68 29 -88 -3 -35 -58 -32 -56 -66 -38 -22 11 -30 20 -23 28 5 7 62
88 127 180 91 130 121 167 134 161 9 -3 24 -9 34 -12z m-1202 -260 l75 -237
258 -5 258 -5 -24 -21 c-13 -11 -105 -81 -206 -154 -159 -115 -182 -135 -176
-154 9 -30 133 -415 144 -450 l10 -28 -26 17 c-14 9 -104 75 -200 146 -96 72
-181 132 -188 135 -8 3 -105 -62 -217 -145 -111 -83 -204 -149 -206 -148 -2 3
82 271 152 483 2 6 -92 81 -208 165 l-211 154 262 3 261 2 65 203 c35 111 70
221 77 245 7 23 15 40 18 36 3 -3 40 -112 82 -242z m-1617 80 c42 -214 33
-267 -50 -304 -67 -29 -110 -15 -142 48 -11 21 -72 293 -72 320 0 6 13 17 29
22 29 10 30 10 39 -36 55 -265 55 -263 78 -279 22 -14 26 -14 49 1 14 9 27 26
30 39 4 12 -8 90 -25 171 -16 82 -29 151 -27 152 13 13 53 20 59 10 3 -6 18
-71 32 -144z m3140 38 c4 -5 -15 -80 -44 -167 -42 -126 -60 -165 -86 -190 -40
-41 -80 -43 -122 -8 -49 41 -55 155 -8 155 32 0 42 -12 42 -49 -1 -40 24 -62
47 -43 8 7 38 82 67 167 48 144 54 155 74 149 11 -3 25 -10 30 -14z m-3475
-37 c29 -35 36 -69 25 -112 -9 -33 -7 -38 20 -62 25 -22 30 -34 33 -85 6 -89
-13 -113 -123 -152 -48 -18 -90 -29 -94 -25 -4 5 -24 94 -45 198 -21 105 -40
195 -42 201 -5 14 128 62 174 63 23 1 37 -6 52 -26z m3672 -49 c25 -13 29 -20
25 -42 -3 -15 -8 -118 -12 -229 -3 -112 -8 -203 -11 -203 -2 0 -17 7 -33 15
-28 14 -30 20 -30 68 l0 53 -56 23 c-30 13 -56 22 -58 20 -1 -2 -15 -21 -30
-41 -28 -37 -28 -37 -57 -22 -19 9 -27 19 -23 27 9 15 188 270 221 315 28 37
25 37 64 16z m-3945 -211 c98 -182 100 -188 80 -200 -34 -20 -44 -15 -66 27
-11 22 -24 40 -28 40 -4 0 -29 -9 -57 -19 l-50 -19 -3 -50 -3 -50 -61 -21
c-34 -12 -68 -21 -74 -21 -7 0 -37 34 -65 75 -29 41 -56 75 -60 75 -4 0 -13
-16 -19 -36 -11 -33 -9 -79 7 -141 4 -18 -1 -25 -23 -33 -19 -8 -29 -8 -34 0
-16 25 -84 400 -75 409 6 5 19 12 31 15 19 6 22 0 33 -61 22 -116 24 -116 65
0 36 100 40 107 73 118 19 6 36 9 39 6 3 -2 -12 -46 -32 -96 -42 -105 -47 -84
59 -219 l66 -84 5 34 c3 18 10 119 16 223 7 105 13 190 13 191 1 0 13 5 27 11
14 7 27 12 30 12 4 1 51 -83 106 -186z m4154 122 c22 -12 30 -23 30 -43 0 -15
5 -85 12 -157 l11 -129 43 128 c24 71 45 131 47 133 8 8 58 -21 54 -31 -2 -6
-33 -98 -68 -203 -66 -199 -72 -210 -112 -180 -13 9 -19 41 -28 147 -7 74 -15
138 -18 142 -4 5 -20 -31 -35 -80 -48 -149 -52 -155 -78 -141 -13 6 -25 13
-27 15 -4 4 132 414 137 414 2 0 16 -7 32 -15z m426 -180 c38 -25 64 -75 64
-122 0 -45 -5 -48 -47 -37 -17 5 -23 14 -23 34 0 19 -9 36 -26 49 -47 37 -92
23 -123 -37 -66 -129 -44 -232 49 -232 35 0 42 4 51 26 5 15 8 28 7 29 -2 1
-17 10 -35 19 -30 15 -31 18 -21 48 6 18 12 34 13 35 5 7 125 -52 125 -61 0
-6 -11 -45 -25 -87 -28 -85 -34 -89 -116 -89 -55 0 -103 29 -133 80 -56 94 10
312 107 356 38 17 98 12 133 -11z m-3046 -480 c0 -3 -14 -34 -31 -70 -81 -171
-233 -310 -478 -438 -53 -27 -99 -55 -103 -61 -5 -8 27 -22 102 -45 128 -38
200 -47 253 -33 42 12 47 4 15 -25 -69 -63 -154 -71 -358 -34 l-115 21 -33
-38 c-18 -20 -41 -49 -52 -63 l-19 -26 98 -27 c101 -27 200 -34 245 -16 34 12
33 0 -1 -32 -77 -71 -173 -82 -399 -42 -29 5 -35 0 -84 -61 -29 -36 -50 -68
-48 -71 3 -2 53 -17 111 -31 96 -25 110 -26 163 -15 32 6 59 10 61 8 8 -8 -44
-55 -85 -76 -40 -21 -52 -22 -150 -17 -59 4 -125 9 -147 12 l-40 6 -40 -62
c-22 -34 -41 -65 -43 -68 -3 -9 96 -16 213 -16 80 0 107 4 128 18 l28 18 -20
-40 c-43 -83 -89 -100 -289 -108 l-142 -6 -31 -54 c-17 -30 -28 -57 -25 -60 3
-4 68 -7 144 -7 109 -1 144 2 169 16 l32 16 -19 -38 c-40 -78 -111 -110 -245
-110 -148 0 -165 -8 -189 -87 -7 -23 -6 -23 91 -23 114 0 162 11 221 51 23 15
42 25 42 21 0 -4 -13 -30 -29 -58 -43 -75 -67 -86 -197 -96 -157 -11 -182 -21
-206 -82 -17 -46 -18 -48 -1 -40 10 4 74 11 143 14 128 6 179 21 233 68 18 16
18 15 6 -13 -26 -60 -61 -104 -96 -120 -21 -10 -78 -20 -146 -25 -165 -11
-193 -27 -210 -118 -6 -31 -6 -32 16 -20 12 6 70 17 129 24 113 13 151 28 194
72 l26 27 -7 -40 c-10 -55 -31 -92 -63 -108 -15 -8 -70 -22 -122 -30 -173 -30
-204 -46 -213 -109 l-5 -36 32 13 c17 7 69 19 115 25 45 6 95 16 109 21 33 13
71 47 82 74 6 14 9 5 9 -32 1 -73 -26 -99 -149 -138 -140 -45 -210 -76 -210
-95 0 -10 -3 -26 -7 -36 -5 -14 -3 -16 13 -9 10 4 64 19 119 32 121 30 170 54
194 94 l18 30 7 -32 c8 -43 -20 -98 -63 -123 -18 -10 -90 -42 -160 -70 l-126
-51 -3 -53 -3 -52 33 20 c18 11 71 32 118 46 141 43 199 81 223 144 3 8 6 -7
6 -33 1 -28 -6 -60 -15 -76 -23 -38 -102 -89 -234 -150 -63 -29 -116 -55 -118
-56 -2 -2 0 -19 4 -39 6 -36 7 -36 24 -16 17 20 83 52 171 84 70 25 135 70
150 104 7 17 17 28 21 26 16 -10 8 -77 -13 -115 -27 -47 -73 -80 -214 -154
-60 -32 -112 -59 -114 -61 -2 -2 1 -29 8 -59 l13 -56 20 26 c11 14 57 44 101
67 103 51 141 81 171 131 l24 39 7 -31 c10 -47 -3 -106 -35 -149 -28 -39 -125
-110 -207 -151 -53 -26 -55 -30 -41 -74 13 -41 27 -46 52 -18 10 11 45 36 79
55 79 47 135 99 157 149 17 38 18 38 25 16 5 -13 8 -43 7 -65 -1 -75 -42 -130
-168 -225 l-94 -70 14 -32 c7 -18 19 -44 26 -60 l13 -27 18 27 c10 15 55 60
101 100 54 48 92 91 110 125 l26 51 7 -45 c14 -90 -33 -194 -136 -302 l-70
-74 22 -37 22 -37 12 29 c7 15 51 67 98 114 49 50 90 102 98 123 7 20 16 36
20 36 4 0 11 -21 15 -46 14 -98 -34 -212 -129 -304 l-55 -53 31 -48 30 -49 17
37 c10 21 45 70 79 108 35 40 69 90 79 118 l17 47 12 -32 c6 -18 12 -64 12
-103 1 -87 -27 -152 -95 -225 l-47 -50 37 -55 c54 -78 66 -86 66 -43 0 25 15
57 57 119 31 46 64 109 74 139 l17 55 23 -50 c14 -31 25 -76 27 -118 4 -63 1
-74 -31 -140 -20 -40 -48 -85 -62 -101 -14 -16 -25 -32 -25 -35 1 -8 96 -111
102 -111 3 0 8 20 10 45 3 25 25 84 48 133 33 67 44 103 49 157 l6 70 32 -49
c75 -114 83 -236 24 -362 -18 -38 -39 -76 -47 -85 -13 -15 -10 -21 36 -59 l50
-42 0 44 c0 23 12 79 26 123 32 98 40 168 26 220 l-11 40 39 -44 c22 -23 52
-68 67 -100 26 -51 28 -66 28 -166 0 -85 -5 -123 -21 -166 l-20 -57 63 -46 63
-46 0 40 c0 21 7 82 16 135 16 94 13 151 -12 220 -12 33 95 -76 122 -125 52
-92 65 -215 38 -342 -5 -23 -1 -30 27 -47 19 -12 36 -21 39 -21 3 0 3 66 0
147 -4 124 -8 155 -26 191 -12 23 -19 42 -17 42 3 0 27 -16 54 -36 60 -44 102
-96 136 -171 24 -50 28 -74 31 -171 l4 -112 47 -27 c108 -61 252 -150 335
-205 l89 -59 30 28 c17 15 38 34 46 42 48 44 330 200 364 201 13 0 7 -35 -12
-65 -30 -49 -71 -85 -151 -131 -41 -23 -101 -66 -133 -94 l-57 -52 46 -46 c97
-97 175 -222 207 -328 l15 -51 -53 -67 c-30 -37 -57 -68 -60 -69 -4 -1 -18 36
-32 83 -13 47 -42 121 -63 165 -40 80 -123 195 -141 195 -16 0 -125 -177 -190
-308 -54 -109 -63 -121 -73 -105 -7 10 -29 46 -50 80 l-37 62 37 68 c56 102
95 160 158 237 l57 70 -28 23 c-44 36 -271 186 -344 226 l-66 37 -44 -24 c-76
-42 -153 -59 -249 -54 -77 4 -96 9 -171 45 l-84 41 65 1 c46 1 90 10 150 32
47 17 105 36 129 43 l45 12 -59 36 -58 35 -61 -27 c-76 -35 -175 -54 -236 -45
-62 8 -157 40 -203 68 l-38 23 63 0 c48 0 93 11 190 44 l127 43 -61 46 -61 46
-81 -28 c-72 -25 -92 -27 -178 -24 -86 3 -104 8 -170 40 -40 19 -86 47 -103
62 -29 25 -29 26 -5 19 44 -13 143 -6 230 15 47 11 106 21 132 21 l47 0 -57
54 -57 54 -65 -15 c-151 -35 -306 8 -420 116 -30 29 -45 47 -33 41 50 -24 128
-29 256 -17 l128 12 -33 38 -33 39 -82 -13 c-145 -22 -257 11 -381 112 -35 28
-62 53 -60 55 2 2 22 -3 43 -11 42 -15 133 -17 278 -6 l88 6 -24 34 -23 33
-129 2 c-126 1 -132 2 -198 34 -68 33 -171 124 -198 173 -12 23 -11 23 12 8
46 -30 94 -40 220 -49 70 -5 143 -16 163 -24 20 -8 36 -13 36 -11 0 2 -15 29
-33 60 l-32 55 -116 3 c-111 2 -118 3 -190 39 -40 21 -88 51 -105 67 -34 32
-104 115 -104 123 0 3 22 -6 50 -20 37 -18 76 -26 162 -34 62 -5 139 -18 171
-27 31 -10 57 -17 57 -16 0 1 -9 20 -20 43 l-20 42 -77 0 c-152 0 -244 48
-340 175 -29 38 -51 70 -50 72 2 1 28 -11 60 -27 55 -27 83 -35 225 -58 34 -6
76 -18 92 -26 35 -17 37 -9 12 47 l-17 38 -85 3 c-166 6 -262 70 -365 245 -5
9 5 5 23 -7 45 -33 103 -51 225 -72 59 -10 119 -26 133 -35 l26 -17 -7 34 c-4
18 -9 36 -11 39 -2 3 -35 9 -73 12 -87 7 -153 36 -209 90 -41 39 -89 119 -107
177 -8 24 -7 23 29 -8 51 -44 99 -67 185 -86 40 -9 89 -23 107 -31 l34 -14 -6
27 c-3 15 -7 32 -9 38 -2 6 -32 13 -68 16 -114 10 -200 73 -260 193 -13 28
-28 61 -32 75 -7 23 -5 22 33 -12 54 -49 82 -63 182 -88 46 -12 92 -26 102
-31 15 -8 18 -5 18 21 0 28 -2 30 -38 30 -133 0 -233 82 -294 242 l-19 51 40
-36 c51 -46 79 -60 174 -86 43 -12 89 -28 103 -37 l24 -16 0 46 0 46 -38 0
c-59 0 -130 29 -173 70 -36 34 -109 170 -109 203 0 7 21 -6 47 -30 32 -31 63
-48 102 -59 98 -27 141 -45 156 -67 11 -16 15 -18 15 -6 0 9 3 37 6 63 l7 46
-39 0 c-106 1 -189 87 -240 250 l-14 45 31 -38 c35 -43 65 -60 163 -93 38 -13
78 -31 87 -40 21 -19 23 -16 34 49 6 35 4 37 -20 37 -44 0 -119 38 -148 76
-33 40 -72 124 -82 174 l-7 35 22 -28 c27 -33 88 -69 157 -92 34 -11 61 -27
77 -48 l24 -31 12 43 c6 23 13 48 16 55 3 9 -8 15 -36 20 -90 14 -158 116
-168 248 -5 85 3 97 31 46 28 -51 59 -82 120 -121 31 -20 61 -46 68 -59 l12
-23 13 30 c20 45 17 51 -25 63 -21 7 -50 21 -65 33 -65 51 -106 179 -90 279
l10 55 34 -64 c21 -39 53 -79 84 -105 27 -22 64 -56 81 -74 l32 -33 21 57 c27
68 27 64 0 64 -34 0 -84 34 -117 80 -50 70 -61 166 -31 273 11 36 30 51 30 23
0 -38 46 -128 87 -172 25 -26 55 -69 67 -95 l21 -47 52 99 52 99 -29 15 c-42
22 -78 63 -96 112 -24 63 -15 182 18 248 l26 50 7 -40 c14 -83 26 -114 70
-181 25 -37 45 -76 45 -86 0 -10 4 -18 9 -18 7 0 111 154 111 164 0 2 -17 15
-39 29 -23 15 -47 44 -60 69 -41 85 -20 234 43 311 l23 29 5 -74 c3 -53 13
-91 33 -134 15 -32 33 -80 39 -106 l11 -46 65 86 66 87 -34 29 c-49 43 -66 82
-66 157 0 54 6 78 31 130 18 35 45 77 62 93 l29 28 -5 -79 c-5 -65 -2 -92 15
-144 12 -35 22 -81 24 -101 l3 -37 73 85 c40 47 76 92 78 99 3 8 -4 27 -16 43
-66 90 -33 242 73 338 28 25 51 43 53 41 2 -1 -4 -25 -12 -52 -17 -54 -14
-188 4 -235 l10 -25 18 33 c69 123 160 220 289 307 121 81 355 187 355 160z
m1779 -94 c9 -6 -2 -11 -33 -15 -58 -9 -76 -33 -76 -103 0 -49 -2 -53 -23 -53
-13 0 -44 7 -70 16 -25 8 -58 14 -74 12 -28 -3 -28 -4 -31 -78 l-3 -76 -35 4
c-59 7 -120 -32 -163 -105 -11 -17 -12 -17 -26 1 -23 30 -18 88 15 179 72 196
100 218 273 216 59 0 111 2 114 5 9 9 116 7 132 -3z m-1164 -149 c0 -39 9 -78
28 -125 30 -74 34 -129 12 -167 -8 -14 -15 -36 -15 -50 0 -26 135 -305 169
-349 l19 -25 11 40 c6 21 14 111 17 199 3 88 10 175 16 193 10 32 11 33 29 16
29 -27 48 -91 57 -204 8 -84 17 -125 49 -208 l40 -103 32 71 33 71 -7 118
c-11 186 20 166 71 -44 69 -281 94 -352 137 -383 l32 -22 11 72 c15 95 53 246
70 278 l13 25 1 -33 c0 -18 -4 -31 -8 -28 -10 6 -31 -65 -57 -189 -24 -109
-24 -308 -1 -395 23 -91 75 -196 127 -257 51 -60 159 -147 169 -136 4 4 15 31
25 58 20 55 73 165 79 165 3 0 -13 -37 -34 -82 -128 -275 -113 -528 45 -741
l36 -48 68 58 c38 32 84 70 102 84 33 25 33 26 37 122 5 114 -11 178 -88 345
-78 171 -96 274 -65 367 l14 40 -7 -40 c-11 -62 -7 -176 8 -220 7 -22 37 -93
66 -157 76 -166 87 -210 82 -328 l-3 -99 71 40 c74 41 106 52 64 22 -14 -10
-27 -18 -30 -18 -11 -1 -79 -40 -135 -78 -197 -133 -328 -303 -370 -480 -28
-116 -9 -342 32 -374 12 -9 8 -12 -19 -18 -18 -4 -62 -19 -97 -33 -180 -71
-305 -200 -372 -387 -10 -27 -18 -42 -19 -32 0 9 14 47 30 84 26 56 30 78 30
149 l0 84 -65 0 -65 0 0 -110 0 -110 -29 0 c-37 0 -41 11 -41 126 l0 94 -75 0
-75 0 0 35 0 35 75 0 75 0 0 120 0 120 -75 0 -75 0 -2 -122 c-1 -68 -1 -185 1
-260 l4 -138 -32 0 c-28 0 -31 3 -31 32 l0 32 -30 -29 c-16 -16 -30 -32 -30
-37 0 -4 61 -8 135 -8 l135 0 0 -55 0 -55 65 0 65 0 0 -60 0 -60 156 0 c101 0
153 3 149 10 -4 6 -65 10 -151 10 -121 0 -144 2 -144 15 0 13 22 15 138 15
130 0 140 2 189 28 89 46 137 95 228 234 119 182 205 265 290 283 24 5 23 3
-10 -11 -53 -23 -113 -65 -151 -106 -31 -33 -154 -213 -154 -226 -1 -19 -112
-130 -163 -163 -31 -20 -52 -39 -46 -41 8 -3 7 -13 -5 -35 -9 -19 -16 -56 -16
-93 l0 -60 -950 0 -950 0 0 70 0 70 155 0 c134 0 155 2 155 16 0 8 -3 13 -8
11 -4 -3 -48 -7 -97 -8 -78 -3 -90 -1 -93 14 -2 11 3 17 15 17 10 1 -7 11 -37
24 -30 12 -73 34 -95 48 -53 33 -149 137 -207 223 -64 94 -70 102 -93 106 -11
3 -21 13 -23 24 -8 39 -72 90 -162 127 -31 13 -35 17 -15 13 96 -20 199 -115
324 -297 120 -175 270 -267 439 -268 l52 0 0 35 0 35 56 0 c66 0 66 -2 2 130
-33 67 -58 101 -118 160 -165 163 -392 235 -727 229 -84 -2 -155 0 -159 4 -4
4 62 7 146 7 l154 0 -35 38 c-54 56 -97 121 -121 182 -17 46 -22 87 -29 250
-9 240 -24 297 -101 387 -29 34 -30 36 -4 13 35 -32 74 -97 93 -158 9 -30 18
-118 22 -242 7 -164 12 -204 30 -251 23 -62 101 -171 141 -201 26 -19 199 -51
212 -39 11 10 36 113 43 182 21 203 -97 428 -307 585 -93 70 -223 148 -287
174 -19 8 -29 16 -23 18 6 2 45 -15 86 -38 l75 -41 -6 83 c-7 109 8 168 90
338 82 169 101 234 94 314 -3 34 -8 70 -12 81 l-7 20 14 -20 c17 -27 17 -179
-1 -225 -7 -19 -44 -101 -83 -181 -45 -96 -73 -168 -80 -210 -12 -71 -3 -194
15 -210 32 -27 201 -149 207 -149 3 0 20 15 36 33 130 141 182 345 136 537
-35 145 -140 345 -229 438 -24 24 -43 48 -43 54 0 16 26 -9 66 -63 20 -27 39
-49 42 -48 4 0 20 28 36 62 23 48 62 95 166 202 151 155 184 203 206 297 13
60 14 61 9 13 -9 -89 -47 -147 -200 -305 -112 -116 -149 -160 -174 -212 -17
-36 -31 -71 -31 -77 0 -6 17 -37 37 -68 20 -32 54 -96 75 -143 21 -47 43 -84
49 -82 25 6 107 69 159 122 138 139 197 327 172 549 -13 117 -53 278 -78 316
-9 13 -14 30 -11 37 3 7 13 -5 22 -27 21 -48 75 -258 75 -290 0 -22 5 -21 85
30 47 29 90 55 95 57 5 2 12 36 16 76 6 64 12 80 48 130 22 31 53 91 68 132
15 41 27 68 28 60 4 -64 38 -301 44 -307 10 -11 22 7 46 72 12 33 31 75 42 93
16 27 19 41 13 85 -5 28 -7 69 -6 89 1 41 30 125 57 166 l17 26 9 -25 c27 -72
29 -114 9 -179 -15 -46 -21 -93 -21 -162 0 -104 5 -128 26 -128 19 0 30 24 59
139 35 138 56 191 100 251 l38 51 -19 55 c-16 47 -17 60 -6 102 12 43 76 152
91 152 3 0 6 -26 6 -58z m1505 -227 c24 -14 24 -14 -22 -15 -63 0 -88 -30 -88
-106 0 -63 0 -63 -95 -33 -61 19 -69 19 -90 5 -23 -15 -24 -20 -18 -80 l6 -63
-62 -5 c-50 -3 -66 -9 -90 -32 -16 -16 -35 -41 -41 -57 -14 -34 -18 -35 -36
-11 -29 38 -19 92 58 295 15 39 71 84 120 98 26 7 73 9 118 5 41 -3 89 -2 105
3 45 14 107 12 135 -4z m298 -334 c9 -5 0 -10 -29 -14 -58 -8 -79 -32 -86
-100 -7 -65 -6 -65 -99 -40 -89 24 -99 16 -99 -73 l0 -68 -45 2 c-58 3 -101
-23 -140 -85 l-30 -46 -15 36 c-20 48 -19 59 10 142 14 39 33 91 42 118 34
100 90 129 239 126 57 -1 107 1 111 4 9 10 126 8 141 -2z m-949 -276 c29 -65
69 -119 167 -225 92 -100 147 -178 168 -236 l12 -35 38 55 c46 67 74 93 55 53
-7 -15 -16 -27 -20 -27 -4 0 -31 -35 -58 -77 -28 -42 -51 -73 -51 -68 0 6 7
18 14 28 31 41 -33 161 -156 293 -152 163 -196 237 -203 341 l-4 58 9 -58 c5
-32 18 -78 29 -102z m1044 -93 c72 -5 112 -13 122 -22 13 -13 9 -15 -31 -11
-61 4 -89 -21 -98 -89 -4 -27 -11 -52 -16 -55 -5 -3 -38 8 -74 25 -36 16 -73
30 -82 30 -28 0 -43 -32 -44 -93 l0 -59 -49 7 c-59 8 -92 -6 -144 -64 -34 -38
-37 -39 -47 -21 -18 33 -11 83 20 145 77 153 90 174 117 192 51 36 42 36 326
15z m73 -302 c31 -11 78 -20 103 -20 42 0 131 -31 131 -45 0 -3 -21 -3 -47 1
-42 5 -51 3 -70 -18 -11 -12 -26 -42 -32 -65 -7 -23 -15 -44 -20 -47 -4 -3
-34 11 -66 30 -99 60 -127 48 -140 -59 -5 -40 -9 -47 -23 -42 -72 30 -132 18
-188 -36 l-33 -32 -10 26 c-16 41 6 99 63 172 17 22 38 52 45 67 47 93 146
116 287 68z m131 -326 c39 -19 84 -34 100 -34 35 0 103 -31 123 -55 14 -17 13
-18 -5 -11 -77 30 -113 15 -146 -61 -10 -24 -22 -43 -27 -43 -5 0 -35 20 -67
45 -81 64 -104 60 -129 -20 -11 -33 -21 -62 -22 -64 -2 -2 -22 4 -44 14 -51
23 -101 15 -157 -24 l-43 -30 -6 24 c-3 13 -1 39 5 58 11 32 141 186 183 215
57 40 130 36 235 -14z m86 -300 c29 -15 65 -37 80 -50 16 -13 38 -24 50 -24
32 -1 108 -42 126 -69 l15 -24 -31 17 c-65 33 -101 19 -137 -51 -9 -19 -24
-33 -34 -33 -10 0 -40 22 -66 49 -75 76 -93 73 -134 -21 -12 -27 -24 -48 -27
-48 -4 0 -20 10 -37 21 -39 28 -92 29 -149 1 -57 -28 -59 -28 -59 6 0 38 30
83 86 127 27 21 56 46 65 56 68 74 159 90 252 43z m-707 -277 c-54 -71 -68
-135 -76 -352 -9 -260 -24 -308 -141 -447 l-31 -38 138 0 c75 0 134 -3 130 -7
-4 -5 -65 -6 -135 -5 -70 2 -162 -1 -205 -8 -43 -6 -80 -10 -82 -7 -3 2 27 9
66 15 67 10 74 13 115 59 49 53 97 136 115 198 6 22 15 130 19 240 7 165 12
210 29 259 19 52 65 126 78 126 3 0 -6 -15 -20 -33z m762 -91 c26 -13 63 -40
83 -59 20 -19 59 -45 86 -57 50 -21 112 -74 101 -85 -3 -4 -21 3 -39 14 -19
12 -42 21 -51 21 -9 0 -36 -22 -60 -50 -24 -27 -46 -50 -50 -50 -4 0 -27 27
-53 59 -69 91 -92 91 -142 0 -25 -47 -27 -49 -47 -34 -12 8 -31 23 -44 32 -29
20 -99 20 -140 -1 -40 -21 -42 -20 -42 7 0 43 39 85 145 156 97 64 112 71 156
71 33 0 66 -8 97 -24z m-52 -295 c23 -11 66 -45 95 -76 30 -31 73 -68 96 -82
47 -28 93 -77 93 -99 0 -11 -11 -6 -37 15 -21 17 -46 31 -57 31 -11 0 -39 -19
-62 -41 -48 -47 -65 -47 -90 3 -28 56 -64 98 -84 98 -18 0 -47 -29 -82 -80
l-16 -25 -34 33 c-47 45 -91 55 -156 38 -51 -13 -52 -13 -52 10 0 38 44 77
146 129 145 73 170 78 240 46z m-22 -305 c20 -15 55 -51 76 -79 22 -29 44 -56
49 -60 81 -75 111 -109 111 -128 0 -20 -2 -19 -35 10 -46 40 -70 39 -124 -4
-49 -39 -59 -37 -80 22 -23 65 -51 103 -75 103 -14 0 -38 -16 -60 -40 -20 -22
-41 -40 -47 -40 -5 0 -23 15 -40 34 -37 43 -84 59 -144 51 -41 -7 -45 -5 -45
13 0 35 64 79 152 107 46 14 90 30 98 36 8 5 40 8 72 6 42 -2 65 -10 92 -31z
m-85 -245 c42 -22 77 -63 111 -131 12 -25 39 -63 61 -85 36 -38 76 -112 65
-122 -3 -3 -19 11 -36 31 -39 44 -70 46 -123 10 -21 -14 -44 -23 -51 -21 -8 3
-19 29 -26 59 -17 70 -37 108 -57 108 -19 0 -83 -41 -83 -52 0 -5 7 -8 15 -8
31 0 100 -83 125 -150 13 -36 35 -78 48 -95 31 -37 62 -103 61 -130 0 -18 -2
-18 -17 5 -46 66 -75 74 -144 39 -22 -11 -44 -17 -49 -12 -4 4 -13 40 -19 78
-7 43 -18 77 -29 89 -19 18 -20 18 -80 -15 -33 -18 -61 -31 -63 -29 -2 3 -12
23 -24 45 -24 46 -89 85 -141 85 -36 0 -38 2 -23 31 19 35 67 50 193 60 122
10 165 17 116 18 -14 1 -36 13 -50 27 -31 34 -78 54 -129 54 -42 0 -50 12 -27
41 20 27 75 49 155 65 41 8 78 17 81 19 12 13 105 3 140 -14z m-320 -521 c65
-18 117 -93 140 -199 6 -29 19 -65 29 -80 29 -43 42 -80 41 -119 l0 -37 -19
43 c-26 57 -52 68 -120 48 -29 -9 -56 -13 -61 -10 -5 3 -9 38 -9 78 0 61 -3
76 -20 91 -20 18 -22 18 -68 1 -80 -31 -77 -31 -90 11 -15 50 -58 91 -113 107
-55 16 -59 30 -17 56 28 17 50 20 153 20 66 0 135 -4 154 -10z m-2563 -191
c77 -81 213 -143 338 -154 124 -11 265 25 349 89 l43 33 42 -33 c89 -68 200
-104 322 -104 141 0 290 57 390 150 30 28 61 49 69 48 23 -5 -39 -69 -117
-122 -204 -140 -486 -141 -670 -3 l-34 26 -53 -34 c-88 -57 -165 -78 -285 -79
-123 -1 -209 22 -305 79 -58 35 -145 111 -145 127 0 18 28 6 56 -23z m2258
-50 c160 -27 183 -40 217 -115 10 -23 23 -73 29 -111 5 -39 19 -92 30 -117 21
-50 27 -136 10 -136 -5 0 -10 9 -10 20 0 34 -29 79 -53 85 -12 4 -43 2 -67 -4
-24 -5 -48 -7 -53 -4 -4 3 -5 39 -2 81 5 60 3 81 -8 97 -14 18 -18 19 -64 6
-97 -27 -93 -28 -93 17 0 52 -42 104 -105 127 -31 12 -42 21 -38 32 13 33 97
42 207 22z m-236 -168 c31 -11 77 -25 102 -31 102 -27 142 -90 146 -230 2 -47
8 -101 14 -120 13 -44 13 -127 0 -135 -6 -3 -10 5 -10 19 0 67 -48 103 -119
91 -53 -9 -58 5 -37 91 16 61 16 68 1 91 -12 18 -23 23 -38 20 -12 -3 -44 -9
-71 -13 -46 -6 -48 -6 -42 14 13 39 -12 99 -56 136 -23 20 -47 36 -54 36 -26
0 -24 19 3 34 38 21 93 20 161 -3z m-138 -208 c88 -42 122 -69 139 -114 15
-40 11 -362 -5 -390 -13 -23 -13 -22 -14 20 0 64 -28 91 -92 91 -63 0 -67 12
-37 101 32 93 25 103 -67 107 l-69 3 3 55 4 56 -55 53 c-56 55 -58 67 -12 77
33 7 115 -17 205 -59z m-377 -241 c34 -16 78 -35 98 -41 36 -11 78 -49 97 -86
18 -36 24 -110 13 -168 -6 -35 -7 -76 -1 -110 8 -54 0 -121 -18 -139 -5 -5 -9
10 -9 37 0 63 -23 84 -96 92 -65 7 -66 9 -37 83 25 64 26 106 2 119 -10 5 -45
7 -77 4 l-58 -6 7 41 c8 56 -11 99 -65 146 -43 36 -43 38 -24 52 28 22 93 13
168 -24z m-285 -549 c-21 -2 -57 -2 -80 0 -24 2 -7 4 37 4 44 0 63 -2 43 -4z
m-2625 -202 c-11 -92 -15 -89 204 -186 563 -250 976 -377 1433 -441 179 -26
662 -26 845 -1 346 48 686 136 1060 274 196 72 547 225 553 241 3 8 1 37 -5
64 -5 26 -8 48 -5 48 2 0 26 -16 53 -35 65 -49 104 -126 95 -191 -3 -25 -18
-69 -32 -97 -24 -48 -24 -53 -8 -62 108 -63 154 -120 154 -192 0 -34 -26 -122
-41 -137 -13 -14 -49 22 -69 70 -10 23 -23 44 -28 48 -5 3 -74 -25 -153 -63
-514 -245 -1008 -390 -1554 -458 -174 -21 -682 -24 -850 -5 -572 66 -1078 218
-1621 487 -104 52 -195 95 -202 95 -6 0 -14 -12 -18 -27 -3 -16 -9 -39 -13
-52 -7 -25 -7 -25 -35 12 -58 75 -41 174 41 247 26 22 57 43 71 47 20 5 23 10
18 32 -33 141 -32 195 7 252 21 31 80 79 98 79 4 0 5 -22 2 -49z"/>
<path d="M2620 8595 c0 -22 -3 -57 -6 -77 l-7 -38 34 11 c19 7 37 14 41 18 4
3 -9 33 -27 66 l-35 60 0 -40z"/>
<path d="M2355 8588 c-16 -6 -32 -12 -33 -14 -2 -1 1 -27 8 -58 l11 -56 37 16
c20 8 40 20 44 27 13 20 9 65 -8 81 -18 18 -18 18 -59 4z"/>
<path d="M4938 8473 c-21 -30 -38 -58 -38 -62 0 -8 44 -31 59 -31 9 0 27 138
20 144 -2 2 -21 -21 -41 -51z"/>
<path d="M1757 8388 c-25 -9 -27 -13 -21 -46 9 -52 17 -57 60 -41 45 17 59 37
50 72 -7 30 -36 35 -89 15z"/>
<path d="M1805 8226 c-22 -6 -39 -15 -39 -19 1 -4 5 -28 9 -52 7 -50 14 -53
74 -29 47 18 61 53 36 90 -17 27 -23 28 -80 10z"/>
<path d="M5466 8245 c-20 -30 -36 -59 -36 -64 0 -9 58 -37 64 -30 5 6 17 149
12 149 -2 0 -20 -25 -40 -55z"/>
<path d="M1490 8186 l0 -78 28 7 c15 3 30 9 34 13 3 4 -9 36 -27 72 l-34 65
-1 -79z"/>
<path d="M3707 7398 c-46 -76 -52 -112 -31 -180 l17 -58 -30 -43 c-48 -67 -69
-115 -98 -222 -39 -147 -65 -225 -76 -225 -39 0 -55 234 -23 331 16 48 16 160
1 176 -10 10 -32 -23 -52 -80 -14 -39 -16 -66 -11 -133 6 -77 4 -89 -19 -134
-14 -27 -34 -74 -45 -104 -20 -52 -45 -85 -56 -74 -3 3 -13 70 -22 149 l-18
144 -25 -55 c-14 -31 -42 -77 -61 -102 -33 -42 -35 -52 -41 -139 -4 -68 -14
-118 -37 -181 -36 -101 -43 -205 -21 -282 19 -66 81 -130 141 -146 63 -17 172
-7 245 23 97 40 162 50 281 45 95 -4 121 -10 199 -41 211 -83 338 -73 438 36
93 103 99 223 23 447 -25 74 -55 180 -66 235 -23 113 -47 192 -61 201 -6 3 -7
-36 -3 -105 l7 -110 -39 -85 -39 -84 -47 127 c-41 109 -49 141 -57 238 -7 84
-14 121 -29 144 -14 23 -22 28 -28 18 -4 -7 -12 -94 -16 -193 -6 -116 -14
-191 -24 -214 -14 -34 -15 -35 -34 -17 -11 10 -58 94 -105 187 l-84 169 19 50
c26 65 25 85 -6 166 -14 38 -29 91 -33 118 l-7 50 -27 -47z m97 -902 c51 -39
124 -60 176 -51 34 6 38 4 44 -18 9 -37 80 -103 148 -136 60 -31 60 -31 33
-41 -119 -45 -211 -32 -283 40 l-31 30 -47 -25 c-61 -33 -125 -33 -178 -2
l-38 24 -57 -31 c-48 -27 -66 -31 -131 -31 -53 0 -86 5 -113 19 l-37 18 42 28
c49 30 109 94 133 139 l15 31 33 -20 c56 -35 128 -23 207 34 19 14 36 25 37
26 2 0 23 -15 47 -34z"/>
<path d="M3575 6089 c-38 -10 -43 -16 -110 -135 -208 -371 -485 -657 -841
-869 l-112 -66 32 -54 31 -54 488 -1 487 0 0 -25 c0 -24 -2 -25 -75 -25 l-75
0 0 -115 0 -115 76 0 c76 0 76 0 72 -25 -3 -13 -1 -22 3 -19 5 3 9 322 9 710
l0 704 120 0 120 0 0 -714 0 -714 31 -12 c16 -7 50 -32 75 -56 l44 -43 0 54 0
54 -67 3 c-66 3 -68 4 -71 31 l-3 27 70 0 71 0 0 115 0 115 -70 0 c-68 0 -70
1 -70 25 l0 25 498 0 497 0 26 49 26 49 -41 19 c-68 30 -211 118 -290 178
-232 174 -424 412 -569 707 -37 74 -67 140 -67 146 0 29 -233 52 -315 31z"/>
<path d="M2604 4838 c4 -13 12 -65 19 -115 11 -92 12 -93 39 -93 l28 0 0 115
0 115 -46 0 c-43 0 -46 -1 -40 -22z"/>
<path d="M2760 4745 l0 -115 70 0 70 0 0 115 0 115 -70 0 -70 0 0 -115z"/>
<path d="M2960 4745 l0 -115 80 0 80 0 0 115 0 115 -80 0 -80 0 0 -115z"/>
<path d="M3180 4745 l0 -115 80 0 80 0 0 115 0 115 -80 0 -80 0 0 -115z"/>
<path d="M4010 4745 l0 -115 75 0 75 0 0 115 0 115 -75 0 -75 0 0 -115z"/>
<path d="M4230 4745 l0 -115 65 0 65 0 0 115 0 115 -65 0 -65 0 0 -115z"/>
<path d="M4420 4745 l0 -115 55 0 55 0 0 115 0 115 -55 0 -55 0 0 -115z"/>
<path d="M4590 4745 l0 -115 80 0 80 0 0 48 c0 26 7 74 15 107 8 33 14 63 15
68 0 4 -43 7 -95 7 l-95 0 0 -115z"/>
<path d="M3458 4573 l-56 -4 -4 -44 -3 -44 25 24 c14 13 45 35 70 49 25 14 41
25 35 24 -5 -1 -35 -3 -67 -5z"/>
<path d="M2614 4543 c-3 -16 -12 -47 -19 -71 -11 -33 -11 -44 -2 -47 7 -2 27
-8 46 -14 19 -6 38 -11 42 -11 5 0 9 38 9 85 l0 85 -35 0 c-30 0 -35 -4 -41
-27z"/>
<path d="M2760 4467 l0 -103 35 -17 c20 -9 51 -17 70 -17 l35 0 0 120 0 120
-70 0 -70 0 0 -103z"/>
<path d="M2960 4450 l0 -120 80 0 80 0 0 120 0 120 -80 0 -80 0 0 -120z"/>
<path d="M3180 4450 l0 -120 70 0 c60 0 70 -3 71 -17 0 -10 6 7 12 37 7 30 10
91 7 135 l-5 80 -77 3 -78 3 0 -121z"/>
<path d="M4230 4450 l0 -120 65 0 65 0 0 120 0 120 -65 0 -65 0 0 -120z"/>
<path d="M4427 4563 c-4 -3 -7 -57 -7 -120 l0 -113 55 0 55 0 0 120 0 120 -48
0 c-27 0 -52 -3 -55 -7z"/>
<path d="M4590 4450 c0 -66 1 -120 3 -120 2 0 26 11 53 24 27 13 70 30 94 37
25 7 46 13 47 14 1 0 -4 25 -11 55 -8 30 -17 67 -20 83 -6 27 -7 27 -86 27
l-80 0 0 -120z"/>
<path d="M3253 4262 l-73 -3 0 -110 0 -110 78 3 77 3 3 58 c2 37 7 55 14 51 6
-4 6 2 -2 15 -6 12 -14 39 -18 59 l-7 37 -72 -3z"/>
<path d="M2960 4245 c0 -8 20 -40 45 -71 47 -57 93 -141 114 -206 20 -60 41
-49 41 21 0 54 -2 59 -20 54 -19 -5 -20 0 -20 106 l0 111 -80 0 c-65 0 -80 -3
-80 -15z"/>
<path d="M4420 4223 l0 -37 33 30 c17 16 36 32 42 36 5 5 -10 8 -33 8 -42 0
-42 0 -42 -37z"/>
<path d="M3991 4214 c0 -11 3 -14 6 -6 3 7 2 16 -1 19 -3 4 -6 -2 -5 -13z"/>
<path d="M3976 4175 c-9 -26 -7 -32 5 -12 6 10 9 21 6 23 -2 3 -7 -2 -11 -11z"/>
<path d="M3400 4061 c0 -12 6 -21 16 -21 9 0 14 7 12 17 -5 25 -28 28 -28 4z"/>
<path d="M1617 1843 c-57 -47 -66 -58 -52 -66 11 -6 25 -5 40 3 28 15 80 -9
91 -42 6 -21 21 -37 34 -38 3 0 3 42 1 92 -5 129 -14 134 -114 51z m73 -23 c0
-28 -1 -29 -26 -18 l-26 12 22 18 c29 24 30 23 30 -12z"/>
<path d="M5518 1888 c-15 -12 -13 -19 17 -85 26 -55 38 -71 49 -67 22 8 20 18
-17 97 -28 60 -34 67 -49 55z"/>
<path d="M5402 1838 c-40 -17 -71 -36 -69 -42 3 -6 11 -9 18 -7 8 2 21 5 30 8
11 3 23 -12 43 -57 20 -47 30 -61 42 -56 9 3 17 6 20 6 2 0 -7 25 -21 56 -31
70 -31 80 0 88 24 6 33 20 17 29 -4 3 -40 -9 -80 -25z"/>
<path d="M1795 1783 c-37 -82 -41 -103 -21 -103 11 0 26 20 41 53 l24 52 -6
-66 c-5 -60 -4 -66 14 -71 15 -4 30 7 59 43 21 27 39 47 41 45 1 -1 -7 -26
-19 -55 -19 -45 -20 -53 -8 -61 12 -8 21 3 41 49 42 92 43 96 13 110 -24 11
-29 8 -65 -31 l-40 -43 4 57 c3 51 1 57 -20 67 -13 6 -26 11 -29 11 -2 0 -16
-26 -29 -57z"/>
<path d="M5289 1785 c-14 -8 -34 -32 -44 -54 -18 -40 -35 -54 -35 -28 0 24
-24 47 -39 38 -20 -13 34 -165 56 -157 8 3 16 6 18 6 2 0 1 16 -2 35 -7 45 15
55 56 26 31 -23 48 -26 70 -12 10 6 0 16 -38 37 -28 16 -51 34 -51 39 0 6 9
25 21 44 24 40 22 44 -12 26z"/>
<path d="M2011 1673 c-24 -59 -28 -79 -19 -85 21 -13 25 -10 37 22 5 17 15 30
20 30 14 0 38 -38 46 -72 4 -16 11 -28 15 -28 5 0 15 -3 24 -6 14 -6 14 -2 1
36 -19 52 -19 50 3 50 22 0 42 19 42 40 0 24 -27 45 -86 69 l-52 20 -31 -76z
m127 -7 c4 -17 -16 -20 -55 -10 -21 6 -31 33 -17 47 10 9 69 -20 72 -37z"/>
<path d="M5021 1668 c-11 -31 -22 -168 -13 -168 15 0 30 16 33 34 2 10 21 25
42 33 33 14 40 14 55 1 16 -14 56 -14 50 0 -9 21 -127 122 -142 122 -9 0 -20
-10 -25 -22z m67 -70 c-26 -16 -38 -8 -38 24 l0 31 25 -23 c19 -18 22 -26 13
-32z"/>
<path d="M2219 1643 c-24 -62 -39 -106 -39 -117 0 -18 129 -61 142 -48 7 7 -7
16 -44 30 -41 16 -52 24 -50 39 6 27 8 27 55 9 52 -19 57 -20 57 -3 0 8 -18
19 -40 26 -44 13 -58 27 -42 43 8 8 23 6 52 -6 49 -19 60 -20 60 -3 0 11 -60
37 -127 55 -7 2 -18 -9 -24 -25z"/>
<path d="M4890 1631 c0 -5 4 -21 9 -35 9 -22 7 -26 -21 -35 -45 -16 -55 -14
-62 14 -4 17 -13 25 -27 25 -13 0 -19 -5 -17 -12 3 -7 15 -44 28 -81 17 -52
26 -67 38 -65 18 4 20 18 8 54 -5 18 -1 24 25 33 44 15 46 15 58 -19 9 -28 29
-39 44 -24 3 3 -6 39 -21 80 -19 55 -30 74 -44 74 -10 0 -18 -4 -18 -9z"/>
<path d="M2386 1601 c-3 -5 7 -14 24 -19 l29 -11 -19 -57 c-25 -71 -25 -84 -2
-84 13 0 24 16 39 63 11 34 24 61 29 61 5 -1 19 -5 32 -9 16 -4 22 -2 22 8 0
10 -24 22 -69 36 -79 24 -78 24 -85 12z"/>
<path d="M4635 1553 c-27 -8 -51 -16 -53 -18 -7 -7 42 -155 51 -155 32 0 121
37 133 56 17 25 10 51 -17 59 -15 5 -17 10 -9 25 7 14 6 23 -6 34 -19 19 -34
19 -99 -1z m71 -25 c9 -14 -23 -38 -53 -38 -30 0 -30 28 0 40 31 12 45 12 53
-2z m29 -67 c7 -13 -34 -41 -61 -41 -27 0 -40 37 -15 43 30 8 70 7 76 -2z"/>
<path d="M2546 1485 c-32 -35 -55 -69 -51 -75 9 -15 33 -12 43 6 13 22 88 2
95 -26 5 -18 33 -38 42 -29 9 10 -31 171 -45 179 -23 15 -24 14 -84 -55z m74
-22 c0 -19 -4 -24 -16 -19 -9 3 -20 6 -25 6 -5 0 -2 11 7 25 19 29 34 24 34
-12z"/>
<path d="M2790 1433 c-6 -32 -14 -68 -17 -79 -6 -26 9 -32 90 -41 51 -5 62 -3
73 12 18 24 17 30 -2 49 -14 15 -14 17 0 22 9 3 16 17 16 31 0 27 -34 46 -107
58 l-41 6 -12 -58z m118 -6 c3 -13 -3 -17 -25 -17 -36 0 -57 14 -50 33 8 21
71 7 75 -16z m-12 -58 c19 -16 8 -29 -26 -29 -44 0 -58 9 -52 32 4 16 10 19
35 14 17 -3 36 -11 43 -17z"/>
<path d="M4376 1482 c-3 -5 -12 -42 -22 -83 -9 -41 -18 -77 -21 -81 -2 -4 -21
5 -42 20 -36 25 -37 28 -20 40 24 17 25 58 2 70 -11 6 -45 6 -86 0 -66 -10
-68 -11 -63 -37 26 -138 28 -142 43 -137 8 3 16 6 18 6 2 0 1 16 -2 35 -5 30
-3 35 15 35 11 0 35 -12 52 -27 29 -24 36 -25 78 -17 37 7 48 14 50 30 4 29
76 42 102 19 9 -8 24 -13 33 -9 24 9 -79 143 -110 143 -12 1 -24 -3 -27 -7z
m64 -84 c0 -5 -12 -8 -26 -8 -20 0 -25 4 -20 16 3 9 6 23 6 32 0 13 5 11 20
-8 11 -14 20 -28 20 -32z m-193 16 c7 -20 -13 -34 -49 -34 -36 0 -40 36 -5 43
41 8 48 7 54 -9z"/>
<path d="M2986 1388 c-4 -35 -10 -73 -13 -85 -4 -18 -1 -23 15 -23 16 0 23 8
28 35 9 51 20 47 82 -34 10 -13 26 -22 36 -20 16 4 15 7 -7 40 l-25 37 24 11
c26 12 33 51 12 69 -11 8 -113 32 -139 32 -3 0 -10 -28 -13 -62z m122 -1 c3
-14 -4 -17 -37 -17 -36 0 -41 3 -41 23 0 22 3 23 37 18 25 -4 39 -12 41 -24z"/>
<path d="M4055 1363 c8 -87 13 -103 30 -103 22 0 23 10 12 93 -8 67 -12 77
-29 77 -18 0 -19 -5 -13 -67z"/>
<path d="M3985 1383 c-13 -77 -19 -80 -42 -24 -18 41 -26 51 -46 51 -21 0 -25
-7 -36 -55 -7 -30 -16 -53 -20 -50 -5 2 -14 25 -21 50 -10 37 -17 45 -36 45
l-24 0 21 -52 c12 -29 26 -65 31 -80 7 -20 17 -28 34 -28 18 0 25 8 33 38 6
20 11 44 11 53 0 36 15 26 36 -23 17 -41 28 -54 47 -56 22 -3 25 2 36 60 7 35
15 73 18 86 4 17 1 22 -15 22 -17 0 -22 -8 -27 -37z"/>
<path d="M3243 1398 c-16 -22 -83 -135 -83 -142 0 -14 39 -5 51 13 19 25 89
18 96 -10 3 -12 14 -19 29 -19 l24 0 -21 53 c-12 28 -26 67 -32 85 -8 23 -16
32 -32 32 -13 0 -27 -6 -32 -12z m47 -80 c0 -5 -11 -8 -25 -8 -29 0 -29 0 -13
35 l12 26 13 -23 c7 -13 12 -26 13 -30z"/>
<path d="M3352 1388 c3 -7 17 -14 31 -16 26 -3 27 -5 27 -73 0 -62 2 -69 20
-69 18 0 20 7 20 54 0 73 6 86 41 86 19 0 29 5 29 15 0 12 -16 15 -86 15 -64
0 -85 -3 -82 -12z"/>
<path d="M3540 1318 c-32 -70 -35 -84 -22 -87 9 -2 23 6 30 18 20 29 87 30
102 1 9 -17 50 -29 50 -15 0 3 -18 41 -40 85 -54 108 -68 108 -120 -2z m74 10
c9 -35 8 -38 -18 -38 -23 0 -24 2 -15 30 13 36 24 38 33 8z"/>
</g>
</svg>
