<?xml version="1.0" standalone="no"?>
<!DOCTYPE svg PUBLIC "-//W3C//DTD SVG 20010904//EN"
 "http://www.w3.org/TR/2001/REC-SVG-20010904/DTD/svg10.dtd">
<svg version="1.0" xmlns="http://www.w3.org/2000/svg"
 width="298.000000pt" height="300.000000pt" viewBox="0 0 298.000000 300.000000"
 preserveAspectRatio="xMidYMid meet">

<g transform="translate(0.000000,300.000000) scale(0.100000,-0.100000)"
fill="#000000" stroke="none">
<path d="M1325 2946 c-557 -197 -971 -505 -1270 -945 l-50 -73 1 -172 c1 -197
15 -343 50 -506 76 -359 229 -691 465 -1012 l49 -66 113 -36 c491 -156 943
-174 1417 -56 149 37 308 94 326 117 46 59 210 312 252 388 141 258 233 525
278 810 8 55 18 197 21 315 l5 215 -63 89 c-300 419 -711 740 -1161 905 -108
40 -248 81 -271 80 -6 0 -79 -24 -162 -53z m327 -30 c486 -160 893 -459 1211
-889 l72 -97 5 -83 c8 -121 -6 -355 -30 -495 -40 -239 -111 -447 -234 -687
-70 -138 -217 -370 -273 -431 -58 -64 -398 -155 -688 -185 -145 -14 -427 -7
-575 16 -226 34 -531 120 -563 159 -40 48 -177 257 -225 343 -205 367 -312
774 -312 1196 l0 148 50 75 c225 332 525 592 906 782 176 88 445 191 501 192
13 0 83 -20 155 -44z"/>
<path d="M1360 2856 c-399 -136 -703 -325 -971 -602 -90 -93 -205 -239 -259
-327 -22 -38 -23 -42 -17 -235 3 -109 13 -242 22 -297 38 -241 123 -499 236
-715 61 -117 207 -344 251 -391 39 -41 310 -119 543 -156 156 -25 517 -25 670
1 134 22 344 75 442 111 67 25 77 32 122 94 95 128 173 258 251 416 161 327
230 627 230 997 l0 153 -67 90 c-331 449 -737 739 -1239 884 -39 12 -75 21
-80 20 -5 0 -65 -19 -134 -43z m44 -283 c10 -63 7 -113 -6 -113 -7 0 -27 17
-45 37 l-31 38 5 -42 c4 -34 2 -43 -9 -43 -16 0 -28 46 -28 113 0 49 19 48 55
-3 15 -22 29 -40 30 -40 1 0 0 20 -3 45 -4 36 -1 45 10 45 10 0 18 -14 22 -37z
m144 25 c-3 -7 -21 -14 -42 -16 -23 -2 -36 -8 -33 -15 2 -7 17 -11 35 -9 24 3
32 -1 32 -12 0 -12 -10 -16 -35 -16 -28 0 -35 -4 -35 -20 0 -17 7 -20 40 -20
29 0 40 -4 40 -15 0 -12 -13 -15 -55 -15 l-55 0 0 75 0 75 56 0 c40 0 55 -4
52 -12z m120 1 c17 -6 33 -17 36 -26 12 -29 -6 -30 -46 -1 -13 9 -20 9 -32 -1
-34 -28 -9 -102 29 -87 20 7 19 26 -1 26 -9 0 -14 6 -11 13 4 10 55 12 65 2 2
-2 0 -16 -5 -31 -19 -57 -106 -51 -126 9 -11 35 6 80 36 95 12 6 22 11 23 11
1 1 15 -4 32 -10z m190 -39 c1 0 2 -5 2 -11 0 -8 -14 -10 -40 -6 -49 6 -57
-18 -10 -28 43 -10 39 -33 -6 -31 -49 1 -56 -21 -10 -30 22 -4 36 -12 36 -21
0 -11 -7 -13 -26 -9 -15 4 -39 10 -55 13 -21 4 -28 10 -25 22 3 9 10 36 16 61
18 74 14 71 67 55 26 -8 49 -15 51 -15z m-684 -22 l-17 -32 37 -31 c20 -16 36
-33 36 -37 0 -16 -38 -7 -55 12 -24 27 -40 20 -40 -15 0 -53 -22 -37 -43 32
-16 51 -18 69 -9 75 8 5 15 -1 21 -17 10 -26 26 -34 26 -12 0 20 30 57 46 57
12 0 12 -5 -2 -32z m781 -8 c12 -4 27 -15 34 -24 11 -13 11 -20 -3 -41 -9 -14
-21 -25 -26 -25 -5 0 -4 -13 2 -31 6 -16 8 -33 4 -36 -10 -10 -35 18 -41 48
-8 36 -28 38 -41 4 -6 -16 -13 -22 -21 -17 -10 6 -7 24 9 75 24 72 21 70 83
47z m-875 -144 c-14 -14 -22 -2 -50 67 -19 48 -21 60 -9 67 18 11 75 -118 59
-134z m-74 47 c22 -40 26 -55 17 -64 -9 -9 -20 -7 -49 10 -44 26 -53 21 -29
-15 12 -19 14 -29 6 -37 -13 -13 -12 -15 -50 61 -38 74 -26 88 38 48 46 -29
48 -28 26 15 -9 16 -13 34 -9 40 8 14 15 6 50 -58z m1057 51 c5 -5 -45 -118
-59 -133 -3 -3 -9 0 -14 5 -7 7 -1 31 17 72 26 57 40 71 56 56z m127 -76 c0
-4 -5 -19 -10 -34 -15 -38 -4 -42 28 -11 23 22 30 24 44 13 17 -12 15 -18 -23
-76 -28 -44 -43 -60 -51 -52 -7 7 -4 22 12 49 l23 38 -34 -32 c-41 -39 -66
-33 -49 12 14 37 7 42 -15 9 -11 -18 -20 -23 -27 -16 -7 7 1 30 26 71 34 55
39 59 57 48 10 -6 19 -15 19 -19z m-1350 -14 c-8 -35 -8 -36 36 -56 36 -16 43
-22 34 -33 -10 -12 -17 -11 -46 2 -39 19 -54 11 -36 -18 13 -20 7 -43 -9 -37
-5 2 -24 28 -43 58 -24 37 -32 58 -25 65 7 7 17 2 29 -13 l19 -23 7 38 c6 35
18 52 35 53 4 0 3 -16 -1 -36z m827 -114 c7 -36 12 -83 13 -106 l0 -40 73 -23
c39 -13 89 -32 110 -43 l38 -19 42 38 c23 21 59 49 79 62 l38 23 110 -102 109
-103 -18 -36 c-11 -20 -35 -56 -53 -81 l-35 -44 34 -56 c18 -30 42 -83 53
-116 l21 -62 52 -6 c29 -4 69 -11 90 -17 l38 -10 -3 -151 -3 -152 -33 -8 c-18
-5 -58 -12 -89 -16 l-55 -7 -23 -63 c-13 -35 -37 -86 -54 -114 l-31 -50 38
-43 c21 -24 47 -59 57 -79 l20 -36 -66 -66 c-54 -53 -70 -65 -88 -59 -11 3
-21 13 -21 21 0 10 -13 14 -50 14 -43 0 -50 3 -50 20 0 15 -7 20 -25 20 -16 0
-25 6 -25 15 0 12 -14 15 -64 15 l-64 0 -5 43 c-4 38 -2 44 27 66 123 96 207
217 241 346 19 76 19 204 0 279 -53 203 -237 380 -442 428 l-53 13 0 80 c0 60
-5 87 -18 107 -13 20 -21 25 -29 17 -7 -7 -12 -2 -17 18 -21 84 -28 103 -40
103 -8 0 -18 -23 -26 -60 -11 -50 -16 -59 -30 -55 -26 8 -44 -45 -44 -132 l-1
-74 -40 -10 c-144 -37 -232 -87 -322 -183 -197 -208 -215 -506 -44 -737 27
-37 78 -88 115 -115 63 -47 66 -51 66 -91 l0 -43 -60 0 c-47 0 -60 -3 -60 -15
0 -10 -11 -15 -35 -15 -28 0 -35 -4 -35 -20 0 -17 -7 -20 -49 -20 -40 0 -50
-3 -54 -20 -9 -35 -41 -22 -105 43 l-63 63 50 71 c28 39 55 74 61 78 7 4 4 16
-9 33 -28 40 -67 121 -81 168 -12 41 -13 41 -69 47 -31 3 -73 11 -94 17 l-37
11 0 149 c0 85 4 151 10 155 5 3 47 11 94 17 84 11 84 12 90 43 4 18 26 70 50
117 l43 86 -34 43 c-42 53 -65 96 -61 112 2 7 49 56 105 110 115 112 99 110
207 27 l64 -49 51 24 c28 14 78 32 111 42 l60 16 0 56 c0 48 9 99 25 149 4 10
40 12 157 10 l153 -3 12 -65z m-971 16 c-18 -13 -26 -27 -22 -35 5 -8 15 -6
33 9 18 14 30 17 36 11 7 -7 1 -18 -17 -32 -21 -17 -24 -24 -15 -35 9 -12 16
-10 41 11 47 40 55 17 10 -28 l-41 -40 -45 49 c-25 27 -45 54 -46 61 0 18 74
73 85 62 6 -6 -1 -18 -19 -33z m1658 -5 c4 -5 -6 -41 -20 -80 -21 -57 -29 -69
-40 -60 -7 6 -10 17 -7 25 8 23 -17 45 -48 42 -45 -5 -37 15 22 49 56 32 84
40 93 24z m-1744 -64 c0 -7 -5 -18 -10 -23 -8 -8 3 -22 35 -48 25 -21 43 -42
40 -47 -10 -16 -24 -10 -65 27 -33 30 -43 34 -55 24 -8 -6 -20 -10 -26 -8 -8
3 3 21 25 46 39 43 56 52 56 29z m908 -62 c6 -27 13 -185 17 -350 3 -165 8
-366 12 -447 l6 -148 -58 0 -57 0 6 128 c4 70 11 276 16 457 10 308 24 455 40
423 4 -7 12 -35 18 -63z m883 -5 l-44 -38 21 -30 c12 -16 18 -33 14 -37 -4 -5
0 -6 8 -3 51 18 133 29 143 19 16 -16 -73 -143 -91 -129 -9 8 -10 14 -1 25 17
19 -8 65 -31 58 -11 -4 -30 11 -58 44 -23 27 -42 53 -41 58 0 4 23 27 52 51
36 30 54 39 61 31 8 -8 -2 -22 -33 -49z m-960 -377 c-16 -500 -20 -561 -39
-568 -8 -3 -17 -4 -19 -2 -5 6 37 919 43 929 4 6 10 6 17 -1 7 -7 6 -120 -2
-358z m133 315 c3 -29 12 -219 21 -423 8 -203 18 -391 20 -417 5 -44 4 -48
-15 -48 -11 0 -23 7 -26 14 -6 17 -32 907 -26 919 10 21 21 1 26 -45z m-1016
5 c26 -20 51 -41 57 -45 5 -5 5 -12 -2 -19 -15 -15 -124 68 -116 88 7 18 9 18
61 -24z m-68 -103 l44 -29 20 30 c13 21 22 27 29 20 14 -14 -39 -94 -56 -85
-11 7 -98 64 -106 70 -5 4 9 24 17 24 4 0 27 -13 52 -30z m2120 -41 c0 -6 -11
-26 -25 -46 -13 -20 -23 -39 -21 -41 2 -2 18 4 36 13 18 9 34 14 37 11 13 -13
-9 -33 -62 -55 -72 -30 -88 -19 -51 35 14 21 24 40 22 42 -2 2 -17 -3 -34 -12
-28 -14 -42 -13 -42 6 0 10 122 67 133 61 4 -2 7 -9 7 -14z m-2119 -35 c42
-38 12 -114 -45 -114 -73 0 -110 68 -63 118 17 19 29 23 56 18 18 -3 42 -13
52 -22z m899 -7 c0 -17 -10 -28 -37 -42 -21 -10 -33 -19 -28 -20 6 -2 22 -6
37 -9 27 -6 28 -8 24 -64 -7 -99 -21 -444 -21 -524 l0 -77 -53 -7 -52 -6 2
-94 c3 -110 -6 -117 -56 -44 l-31 45 -48 -9 c-26 -4 -47 -12 -47 -16 0 -5 21
-26 46 -48 26 -22 45 -45 42 -53 -3 -8 -33 15 -80 61 -115 115 -168 238 -168
394 0 223 161 435 389 513 82 28 81 28 81 0z m271 7 c30 -9 81 -30 114 -46 79
-40 201 -163 238 -240 78 -163 76 -338 -5 -491 -34 -64 -101 -144 -149 -178
-50 -35 -47 -11 4 32 26 22 47 44 47 49 0 6 -74 30 -93 30 -2 0 -18 -20 -37
-45 -31 -41 -70 -60 -70 -35 0 7 -6 7 -19 0 -31 -16 -81 -13 -81 6 0 12 11 15
55 13 30 -1 57 0 61 3 3 3 2 38 -2 76 l-6 70 -51 7 c-27 4 -45 10 -40 14 7 4
8 57 3 151 -5 80 -11 227 -15 327 l-7 182 33 3 34 3 -37 23 c-23 14 -38 31
-38 43 0 23 -6 23 61 3z m1006 -125 c21 -18 27 -70 10 -86 -20 -21 -40 -8 -27
17 5 10 7 26 4 34 -8 20 -58 21 -77 1 -18 -17 -11 -55 9 -55 7 0 11 6 8 14 -3
7 1 16 9 19 10 4 17 -2 21 -16 10 -37 7 -45 -21 -52 -74 -18 -91 106 -18 136
22 9 63 3 82 -12z m-2272 -16 c11 -11 15 -26 11 -45 -5 -23 -2 -29 19 -34 27
-7 35 -34 10 -34 -8 0 -42 7 -75 17 -56 15 -59 18 -54 42 15 65 55 89 89 54z
m1108 -590 c-18 -2 -48 -2 -65 0 -18 2 -4 4 32 4 36 0 50 -2 33 -4z m107 -76
l0 -53 -115 0 -115 0 0 53 0 53 115 0 115 0 0 -53z m-252 -9 c-3 -52 -4 -53
-35 -56 l-33 -3 0 50 c0 51 6 59 48 60 22 1 23 -2 20 -51z m326 46 c12 -5 16
-20 16 -59 l0 -52 -32 6 c-32 6 -33 9 -36 59 -3 46 -1 52 17 52 10 0 26 -3 35
-6z m-144 -134 c0 -29 -2 -30 -45 -30 -43 0 -45 1 -45 30 0 29 2 30 45 30 43
0 45 -1 45 -30z m-110 -5 c0 -16 -6 -25 -15 -25 -9 0 -15 9 -15 25 0 16 6 25
15 25 9 0 15 -9 15 -25z m160 0 c0 -16 -6 -25 -15 -25 -9 0 -15 9 -15 25 0 16
6 25 15 25 9 0 15 -9 15 -25z m-206 -10 c4 -12 -3 -15 -33 -15 -45 0 -71 8
-71 21 0 16 97 11 104 -6z m-94 -104 l0 -69 -36 -6 c-19 -4 -42 -10 -50 -13
-13 -5 -14 7 -12 68 l3 74 40 6 c22 3 43 7 48 8 4 0 7 -30 7 -68z m398 2 l-3
-68 -187 -3 -188 -2 0 70 0 70 190 0 191 0 -3 -67z m110 51 c8 -2 12 -25 12
-69 0 -71 -1 -72 -69 -59 l-31 7 0 68 0 68 38 -5 c20 -3 43 -7 50 -10z m-413
-143 c34 -8 28 -9 -40 -9 -53 0 -73 2 -60 8 25 11 50 11 100 1z m325 -1 c17
-5 -4 -8 -60 -8 -62 1 -76 3 -50 8 46 10 80 10 110 0z m8 -37 c-120 -2 -316
-2 -435 0 -120 1 -22 2 217 2 239 0 337 -1 218 -2z m270 -35 c-4 -10 -114 -14
-496 -16 -433 -2 -492 0 -492 13 0 13 60 15 496 15 392 0 495 -3 492 -12z
m-201 -45 c-163 -2 -431 -2 -595 0 -163 1 -29 2 298 2 327 0 461 -1 297 -2z
m66 -30 c-194 -2 -512 -2 -705 0 -194 1 -36 2 352 2 388 0 546 -1 353 -2z m30
-30 c-216 -2 -570 -2 -785 0 -216 1 -40 2 392 2 432 0 608 -1 393 -2z m467
-33 c0 -7 -292 -10 -855 -10 -563 0 -855 3 -855 10 0 7 292 10 855 10 563 0
855 -3 855 -10z m-680 -38 c0 -4 -38 -13 -84 -20 -67 -10 -103 -10 -175 0 -50
7 -91 16 -91 20 0 4 79 8 175 8 96 0 175 -4 175 -8z m-232 -42 c52 -12 52 -12
52 -51 0 -21 -3 -39 -6 -39 -3 0 -34 7 -68 16 -33 9 -99 16 -146 17 -93 0
-144 -13 -269 -70 -40 -18 -77 -33 -82 -33 -5 0 -9 15 -9 33 0 33 2 35 105 81
58 26 124 51 148 56 51 11 203 6 275 -10z m378 9 c32 -6 105 -32 161 -57 100
-46 103 -48 103 -79 0 -42 -12 -42 -98 1 -37 19 -91 41 -121 50 -69 20 -208
21 -284 1 -32 -8 -60 -15 -62 -15 -3 0 -5 18 -5 39 l0 40 53 10 c113 22 173
25 253 10z m-396 -98 c52 -13 66 -21 68 -38 l3 -21 -59 18 c-83 26 -168 34
-227 21 -27 -6 -92 -32 -142 -57 -54 -27 -113 -49 -140 -52 l-48 -5 16 23 c8
13 33 28 55 35 21 6 59 22 84 35 118 61 259 76 390 41z m418 5 c29 -8 87 -30
130 -50 42 -19 87 -38 100 -41 12 -4 27 -15 32 -26 10 -17 7 -19 -27 -19 -25
0 -77 19 -156 57 -117 55 -121 56 -206 56 -60 -1 -103 -7 -143 -21 -38 -14
-60 -17 -64 -10 -30 48 209 87 334 54z"/>
<path d="M1910 2496 c0 -13 20 -26 41 -26 15 0 10 27 -7 34 -24 9 -34 7 -34
-8z"/>
<path d="M2291 2246 c-9 -10 -8 -15 3 -19 8 -3 16 2 19 14 6 22 -6 25 -22 5z"/>
<path d="M2470 2030 c0 -5 4 -10 9 -10 6 0 13 5 16 10 3 6 -1 10 -9 10 -9 0
-16 -4 -16 -10z"/>
<path d="M402 1908 c-30 -30 3 -73 51 -66 31 4 34 42 5 62 -27 19 -40 20 -56
4z"/>
<path d="M1288 1888 c-16 -5 -28 -14 -28 -19 0 -15 23 -10 50 11 27 21 20 24
-22 8z"/>
<path d="M1160 1816 c-25 -18 -56 -45 -68 -59 -26 -28 -27 -28 45 -42 26 -5
34 -2 44 17 6 13 27 42 45 64 28 35 31 43 18 48 -27 10 -38 7 -84 -28z"/>
<path d="M1261 1795 c-40 -46 -39 -50 7 -22 20 13 51 29 67 35 25 8 26 11 8
11 -12 1 -28 3 -36 7 -8 3 -27 -10 -46 -31z"/>
<path d="M1038 1693 c-26 -30 -50 -85 -41 -94 4 -4 26 -11 48 -14 40 -7 41 -6
73 45 18 28 32 53 32 54 0 2 -15 6 -32 9 -18 3 -40 8 -49 12 -9 3 -22 -2 -31
-12z"/>
<path d="M957 1516 c-16 -69 -15 -70 50 -81 l41 -6 12 56 c6 31 10 58 8 61 -3
2 -25 10 -51 18 l-46 14 -14 -62z"/>
<path d="M944 1358 c8 -82 24 -138 39 -138 7 0 29 5 50 11 33 9 38 14 33 32
-3 12 -9 48 -12 79 l-7 57 -49 10 c-27 6 -52 11 -55 11 -3 0 -3 -28 1 -62z"/>
<path d="M1025 1203 c-11 -3 -24 -9 -29 -13 -9 -9 35 -93 55 -105 5 -4 32 -2
58 5 l48 11 -35 55 c-36 54 -46 59 -97 47z"/>
<path d="M1680 1880 c28 -22 36 -24 44 -11 3 5 -8 14 -26 20 -43 15 -47 14
-18 -9z"/>
<path d="M1738 1844 c-3 -3 13 -33 35 -66 42 -60 42 -60 85 -55 56 6 60 12 31
43 -54 58 -131 98 -151 78z"/>
<path d="M1652 1823 c-18 -4 -12 -9 35 -33 32 -16 59 -28 61 -26 6 7 -50 66
-61 65 -7 -1 -22 -4 -35 -6z"/>
<path d="M1885 1702 c-27 -9 -51 -17 -53 -17 -1 -1 14 -27 34 -57 l36 -55 49
10 c30 6 49 15 49 23 0 12 -59 116 -63 113 -1 0 -24 -8 -52 -17z"/>
<path d="M1955 1556 c-22 -6 -40 -16 -40 -21 1 -6 5 -32 9 -59 l9 -48 50 6
c28 4 55 9 59 12 15 10 -18 124 -35 123 -7 0 -30 -6 -52 -13z"/>
<path d="M1983 1409 l-41 -10 -11 -64 c-6 -36 -14 -70 -16 -77 -3 -9 14 -19
49 -29 l55 -16 16 68 c19 83 20 139 3 138 -7 -1 -32 -5 -55 -10z"/>
<path d="M1866 1161 c-21 -35 -30 -57 -23 -59 7 -2 30 -9 53 -17 l41 -13 33
55 c20 32 29 58 24 63 -5 5 -28 13 -51 18 l-42 10 -35 -57z"/>
<path d="M345 1750 c-8 -26 -1 -35 20 -26 18 7 17 37 -2 43 -6 2 -14 -5 -18
-17z"/>
</g>
</svg>
